<svg width="140" viewBox="0 0 122 40" fill="none" xmlns="http://www.w3.org/2000/svg">
<path d="M86.9866 19.9302C86.9866 17.5849 88.0526 16.3057 89.9714 16.3057C91.6771 16.3057 92.3167 17.1585 92.5299 18.0114L92.7431 18.2246H94.4488L94.662 18.0114C94.4488 16.0925 92.9563 14.3868 89.9714 14.3868C86.7733 14.3868 84.8545 16.5189 84.8545 19.9302C84.8545 23.3415 86.7733 25.4736 89.9714 25.4736C92.9563 25.4736 94.4488 23.7679 94.662 21.8491L94.4488 21.6359H92.7431L92.5299 21.8491C92.3167 22.7019 91.6771 23.5547 89.9714 23.5547C88.0526 23.5547 86.9866 22.2755 86.9866 19.9302Z" fill="#ABB5BF"/>
<path d="M98.7029 25.0471V10.5491L98.4897 10.3359H96.784L96.5708 10.5491V25.0471L96.784 25.2604H98.4897L98.7029 25.0471Z" fill="#ABB5BF"/>
<path d="M103.388 12.6812V10.9756L103.174 10.7624H101.469L101.256 10.9756V12.6812L101.469 12.8944H103.174L103.388 12.6812ZM103.388 25.0471V14.8133L103.174 14.6001H101.469L101.256 14.8133V25.0471L101.469 25.2604H103.174L103.388 25.0471Z" fill="#ABB5BF"/>
<path d="M22.794 39.7906V29.6859L23.0034 29.4764H25.5296L25.739 29.6859V39.7906L25.5296 40H23.0034L22.794 39.7906Z" fill="#32E6E2"/>
<path d="M22.794 10.3141V0.209424L23.0035 0H25.5296L25.739 0.209424V10.3141L25.5296 10.5236H23.0035L22.794 10.3141Z" fill="#32E6E2"/>
<path d="M14.0997 32.6865H13.7528L12.0152 30.949V30.6021L15.2711 27.3429L17.1101 27.3462L17.3555 27.5884V29.4274L14.0997 32.6865Z" fill="#32E6E2"/>
<path d="M12.0152 9.48953V9.1394L13.7528 7.4051H14.0996L17.3555 10.661V12.4967L17.1101 12.7454H15.2711L12.0152 9.48953Z" fill="#32E6E2"/>
<path d="M0.581983 18.5242H14.8981L15.1075 18.7336V21.2631L14.8981 21.4725H0.581983L0.372559 21.2631V18.7336L0.581983 18.5242Z" fill="#32E6E2"/>
<path d="M29.0048 25.2651H26.4786L26.2692 25.0556V19.1427C26.2692 18.089 25.8568 17.2742 24.5872 17.248C23.9328 17.2317 23.1867 17.248 22.3883 17.2808L22.2672 17.4018V25.0524L22.0578 25.2618H19.5316L19.3222 25.0524V14.9476L19.5316 14.7382H25.2155C27.4243 14.7382 29.2142 16.5281 29.2142 18.7369V25.0524L29.0048 25.2618V25.2651Z" fill="white"/>
<path d="M41.2397 20.841L41.0303 21.0504H34.4989L34.2894 21.2598C34.2894 21.6819 34.7116 22.945 36.3968 22.945C37.0283 22.945 37.6599 22.7356 37.8726 22.3135L38.082 22.1041H40.6082L40.8176 22.3135C40.6082 23.5766 39.5545 25.4745 36.3935 25.4745C32.8137 25.4745 31.1284 22.9483 31.1284 19.9967C31.1284 17.0452 32.8137 14.519 36.1841 14.519C39.5545 14.519 41.2397 17.0452 41.2397 19.9967V20.841ZM38.0787 18.7336C38.0787 18.5242 37.8693 17.0484 36.1841 17.0484C34.4989 17.0484 34.2894 18.5242 34.2894 18.7336L34.4989 18.9431H37.8693L38.0787 18.7336Z" fill="white"/>
<path d="M47.1363 22.1041C47.1363 22.5262 47.3457 22.7356 47.7678 22.7356H49.6625L49.8719 22.945V25.0524L49.6625 25.2618H47.7678C45.8732 25.2618 44.188 24.4175 44.188 22.1008V17.4673L43.9786 17.2579H42.5028L42.2934 17.0484V14.9411L42.5028 14.7317H43.9786L44.188 14.5223V12.6276L44.3974 12.4182H46.9236L47.133 12.6276V14.5223L47.3424 14.7317H49.6592L49.8686 14.9411V17.0484L49.6592 17.2579H47.3424L47.133 17.4673V22.1008L47.1363 22.1041Z" fill="white"/>
<path d="M54.9308 25.2651H52.4046L52.1952 25.0556V10.7297L52.4046 10.5203H54.9308L55.1402 10.7297V25.0524L54.9308 25.2618V25.2651Z" fill="white"/>
<path d="M60.618 13.0465H58.0918L57.8824 12.837V10.7297L58.0918 10.5203H60.618L60.8274 10.7297V12.837L60.618 13.0465ZM60.618 25.2651H58.0918L57.8824 25.0556V14.9444L58.0918 14.7349H60.618L60.8274 14.9444V25.0556L60.618 25.2651Z" fill="white"/>
<path d="M70.5198 10.7297V12.837L70.3104 13.0465H68.4157C67.9936 13.0465 67.7842 13.2559 67.7842 13.678V14.5223L67.9936 14.7317H70.1009L70.3104 14.9411V17.0484L70.1009 17.2579H67.9936L67.7842 17.4673V25.0491L67.5748 25.2585H65.0486L64.8392 25.0491V17.4673L64.6297 17.2579H63.154L62.9445 17.0484V14.9411L63.154 14.7317H64.6297L64.8392 14.5223V13.678C64.8392 11.3613 66.5244 10.517 68.419 10.517H70.3136L70.5231 10.7264L70.5198 10.7297Z" fill="white"/>
<path d="M78.311 25.4745C77.4668 27.5818 76.6258 28.8449 73.6775 28.8449H72.6239L72.4145 28.6355V26.5281L72.6239 26.3187H73.6775C74.7312 26.3187 74.9406 26.1093 75.1533 25.4778V25.2683L71.7829 17.0517V14.9444L71.9923 14.7349H73.887L74.0964 14.9444L76.6226 22.1073H76.832L79.3582 14.9444L79.5676 14.7349H81.4622L81.6716 14.9444V17.0517L78.3012 25.4778L78.311 25.4745Z" fill="white"/>
<path d="M106.661 18.5242H120.977L121.187 18.7336V21.2631L120.977 21.4725H106.661L106.452 21.2631V18.7336L106.661 18.5242Z" fill="#32E6E2"/>
</svg>
