<svg width="140px" viewBox="0 0 122 40" xmlns="http://www.w3.org/2000/svg">
  <path d="M86.99 19.93c0-2.35 1.06-3.62 2.98-3.62 1.7 0 2.35.85 2.56 1.7l.21.21h1.7l.22-.2c-.21-1.93-1.7-3.63-4.69-3.63-3.2 0-5.12 2.13-5.12 5.54s1.92 5.54 5.12 5.54c2.99 0 4.48-1.7 4.7-3.62l-.22-.21h-1.7l-.22.2c-.21.86-.85 1.71-2.56 1.71-1.92 0-2.98-1.27-2.98-3.62Zm11.71 5.12v-14.5l-.21-.21h-1.7l-.22.2v14.5l.21.22h1.71l.21-.21Zm4.69-12.37v-1.7l-.22-.22h-1.7l-.21.22v1.7l.2.21h1.71l.22-.2Zm0 12.37V14.8l-.22-.21h-1.7l-.21.21v10.24l.2.21h1.71l.22-.21Z" fill="#778089">
</path>
<path d="M22.8 39.8V29.68l.2-.21h2.53l.2.2V39.8l-.2.21H23l-.2-.2Zm0-29.49V.21L23 0h2.53l.2.2v10.11l-.2.21H23l-.2-.2Zm-8.7 22.38h-.35l-1.73-1.74v-.35l3.25-3.26h1.84l.25.25v1.84l-3.26 3.26Zm-2.08-23.2v-.35l1.73-1.73h.35l3.26 3.25v1.84l-.25.25h-1.84l-3.25-3.26ZM.58 18.52H14.9l.2.21v2.53l-.2.21H.58l-.2-.2v-2.54l.2-.2Z" fill="#05BDBA">
</path>
<path d="M29 25.27h-2.52l-.21-.21v-5.92c0-1.05-.41-1.87-1.68-1.9-.66 0-1.4 0-2.2.04l-.12.12v7.65l-.21.21h-2.53l-.2-.2V14.94l.2-.21h5.69a4 4 0 0 1 4 4v6.31l-.22.21Zm12.24-4.43-.21.21H34.5l-.21.21c0 .42.42 1.68 2.1 1.68.64 0 1.27-.2 1.48-.63l.21-.2h2.53l.2.2c-.2 1.27-1.26 3.16-4.42 3.16-3.58 0-5.26-2.52-5.26-5.47 0-2.95 1.68-5.48 5.05-5.48s5.06 2.53 5.06 5.48v.84Zm-3.16-2.1c0-.22-.21-1.7-1.9-1.7a1.78 1.78 0 0 0-1.9 1.7l.22.2h3.37l.2-.2Zm9.06 3.36c0 .43.2.64.63.64h1.9l.2.2v2.11l-.2.21h-1.9c-1.9 0-3.58-.84-3.58-3.16v-4.63l-.21-.21H42.5l-.2-.21v-2.1l.2-.22h1.48l.2-.2v-1.9l.22-.21h2.52l.21.2v1.9l.21.21h2.32l.2.21v2.1l-.2.22h-2.32l-.2.2v4.64Zm7.79 3.17H52.4l-.2-.21V10.73l.2-.21h2.53l.21.21v14.32l-.2.21Zm5.69-12.22h-2.53l-.2-.21v-2.11l.2-.21h2.53l.2.21v2.1l-.2.22Zm0 12.22h-2.53l-.2-.21V14.94l.2-.2h2.53l.2.2v10.12l-.2.2Zm9.9-14.54v2.1l-.2.22h-1.9c-.43 0-.64.2-.64.63v.84l.21.21h2.11l.21.21v2.1l-.2.22h-2.12l-.2.2v7.59l-.22.2h-2.52l-.21-.2v-7.58l-.21-.21h-1.48l-.2-.21v-2.1l.2-.22h1.48l.2-.2v-.85c0-2.32 1.7-3.16 3.59-3.16h1.9l.2.2v.01Zm7.79 14.74c-.84 2.11-1.68 3.37-4.63 3.37h-1.06l-.2-.2v-2.11l.2-.21h1.06c1.05 0 1.26-.21 1.47-.84v-.21l-3.37-8.22v-2.1l.21-.22h1.9l.2.21 2.53 7.17h.21l2.53-7.17.2-.2h1.9l.21.2v2.11l-3.37 8.43h.01Z" fill="#014847">
</path>
<path d="M106.66 18.52h14.32l.2.21v2.53l-.2.21h-14.32l-.2-.2v-2.54l.2-.2Z" fill="#05BDBA">
</path>
</svg>
